<svg width="427" height="469" viewBox="0 0 427 469" fill="none" xmlns="http://www.w3.org/2000/svg">
<path d="M0 408.33L13.491 372.442H15.9958V376.571H15.1278L3.57115 408.33H0ZM5.87751 397.313L6.9935 394.403H23.3117L24.4276 397.313H5.87751ZM26.734 408.33L15.2022 376.571V372.442H16.8389L30.2803 408.33H26.734Z" fill="#EFEFEF"/>
<path d="M42.6802 408.803C40.5143 408.803 38.613 408.247 36.9762 407.136C35.3395 406.026 34.0582 404.467 33.1323 402.461C32.223 400.438 31.7683 398.084 31.7683 395.398V395.373C31.7683 392.67 32.2313 390.324 33.1571 388.334C34.083 386.328 35.356 384.77 36.9762 383.659C38.613 382.548 40.5061 381.992 42.6554 381.992C44.0111 381.992 45.2676 382.233 46.4249 382.714C47.5822 383.195 48.5907 383.883 49.4505 384.778C50.3267 385.657 51.0046 386.693 51.484 387.887H51.5832V372.442H54.832V408.33H51.5832V402.933H51.4592C50.9798 404.127 50.3102 405.163 49.4505 406.042C48.5907 406.904 47.5905 407.584 46.4497 408.082C45.3089 408.562 44.0524 408.803 42.6802 408.803ZM43.3002 405.868C44.9204 405.868 46.3505 405.437 47.5905 404.575C48.847 403.696 49.8225 402.469 50.5168 400.894C51.2278 399.302 51.5832 397.47 51.5832 395.398V395.373C51.5832 393.3 51.2278 391.476 50.5168 389.901C49.8059 388.326 48.8305 387.107 47.5905 386.245C46.3505 385.367 44.9204 384.927 43.3002 384.927C41.6468 384.927 40.2002 385.358 38.9602 386.22C37.7368 387.066 36.7861 388.276 36.1083 389.852C35.4469 391.41 35.1163 393.25 35.1163 395.373V395.398C35.1163 397.52 35.4469 399.369 36.1083 400.944C36.7861 402.519 37.7368 403.738 38.9602 404.6C40.2002 405.445 41.6468 405.868 43.3002 405.868Z" fill="#EFEFEF"/>
<path d="M60.7343 408.33V382.465H64.0078V386.942H64.0822C64.6113 385.499 65.5124 384.322 66.7854 383.41C68.0584 382.482 69.596 382.017 71.3981 382.017C72.6712 382.017 73.8037 382.249 74.7957 382.714C75.8042 383.161 76.6557 383.8 77.35 384.629C78.0444 385.441 78.5487 386.395 78.8628 387.489H78.962C79.3753 386.411 79.9623 385.466 80.7228 384.654C81.4998 383.825 82.4257 383.178 83.5004 382.714C84.575 382.249 85.7654 382.017 87.0715 382.017C88.7579 382.017 90.2211 382.374 91.461 383.087C92.7175 383.8 93.693 384.803 94.3874 386.096C95.0818 387.373 95.429 388.89 95.429 390.647V408.33H92.1554V391.393C92.1554 390.05 91.9157 388.898 91.4362 387.936C90.9568 386.958 90.2707 386.212 89.3779 385.698C88.5016 385.184 87.4352 384.927 86.1787 384.927C84.9057 384.927 83.7814 385.234 82.806 385.847C81.8305 386.444 81.07 387.282 80.5244 388.359C79.9788 389.42 79.706 390.647 79.706 392.04V408.33H76.4325V391.095C76.4325 389.852 76.1845 388.774 75.6885 387.862C75.1925 386.933 74.4981 386.212 73.6053 385.698C72.729 385.184 71.704 384.927 70.5301 384.927C69.2571 384.927 68.1328 385.25 67.1574 385.897C66.1819 386.527 65.4132 387.406 64.851 388.533C64.2889 389.661 64.0078 390.971 64.0078 392.463V408.33H60.7343Z" fill="#EFEFEF"/>
<path d="M101.207 408.33V382.465H104.481V408.33H101.207ZM102.844 377.789C102.249 377.789 101.736 377.582 101.306 377.168C100.893 376.737 100.686 376.214 100.686 375.601C100.686 375.004 100.893 374.498 101.306 374.084C101.736 373.653 102.249 373.437 102.844 373.437C103.456 373.437 103.968 373.653 104.382 374.084C104.812 374.498 105.026 375.004 105.026 375.601C105.026 376.214 104.812 376.737 104.382 377.168C103.968 377.582 103.456 377.789 102.844 377.789Z" fill="#EFEFEF"/>
<path d="M110.383 408.33V382.465H113.657V386.892H113.731C114.392 385.483 115.434 384.322 116.856 383.41C118.278 382.482 120.022 382.017 122.089 382.017C124.949 382.017 127.181 382.88 128.784 384.604C130.388 386.328 131.19 388.716 131.19 391.767V408.33H127.916V392.314C127.916 389.91 127.338 388.077 126.181 386.817C125.023 385.557 123.345 384.927 121.146 384.927C119.642 384.927 118.327 385.267 117.203 385.947C116.079 386.627 115.203 387.572 114.574 388.782C113.963 389.976 113.657 391.385 113.657 393.01V408.33H110.383Z" fill="#EFEFEF"/>
<path d="M154.774 408.803C153.088 408.803 151.6 408.488 150.311 407.858C149.021 407.211 148.012 406.316 147.285 405.172C146.574 404.011 146.219 402.676 146.219 401.168V401.118C146.219 399.642 146.574 398.374 147.285 397.313C148.012 396.252 149.062 395.414 150.435 394.801C151.823 394.171 153.501 393.798 155.469 393.682L165.141 393.06V395.621L155.866 396.243C153.849 396.392 152.286 396.89 151.179 397.735C150.087 398.564 149.542 399.692 149.542 401.118V401.168C149.542 402.593 150.087 403.746 151.179 404.625C152.27 405.487 153.683 405.918 155.419 405.918C156.94 405.918 158.304 405.603 159.511 404.973C160.735 404.326 161.702 403.447 162.413 402.336C163.14 401.226 163.504 399.982 163.504 398.606V390.921C163.504 389.047 162.942 387.58 161.818 386.519C160.71 385.458 159.147 384.927 157.13 384.927C155.262 384.927 153.733 385.35 152.543 386.196C151.369 387.041 150.641 388.202 150.36 389.677L150.311 389.926H147.161L147.186 389.628C147.351 388.135 147.855 386.817 148.699 385.673C149.542 384.529 150.683 383.634 152.121 382.987C153.559 382.324 155.246 381.992 157.18 381.992C159.147 381.992 160.842 382.349 162.264 383.062C163.702 383.758 164.81 384.753 165.587 386.046C166.381 387.34 166.778 388.865 166.778 390.623V408.33H163.504V403.58H163.43C162.967 404.625 162.297 405.536 161.421 406.316C160.545 407.095 159.536 407.709 158.395 408.156C157.254 408.587 156.048 408.803 154.774 408.803Z" fill="#EFEFEF"/>
<path d="M172.283 408.33V382.465H175.557V386.892H175.631C176.292 385.483 177.334 384.322 178.756 383.41C180.178 382.482 181.922 382.017 183.988 382.017C186.849 382.017 189.081 382.88 190.684 384.604C192.288 386.328 193.09 388.716 193.09 391.767V408.33H189.816V392.314C189.816 389.91 189.238 388.077 188.08 386.817C186.923 385.557 185.245 384.927 183.046 384.927C181.542 384.927 180.227 385.267 179.103 385.947C177.979 386.627 177.102 387.572 176.474 388.782C175.862 389.976 175.557 391.385 175.557 393.01V408.33H172.283Z" fill="#EFEFEF"/>
<path d="M208.242 408.803C206.077 408.803 204.175 408.247 202.539 407.136C200.902 406.026 199.62 404.467 198.695 402.461C197.785 400.438 197.331 398.084 197.331 395.398V395.373C197.331 392.67 197.794 390.324 198.719 388.334C199.645 386.328 200.918 384.77 202.539 383.659C204.175 382.548 206.068 381.992 208.218 381.992C209.573 381.992 210.83 382.233 211.987 382.714C213.145 383.195 214.153 383.883 215.013 384.778C215.889 385.657 216.567 386.693 217.046 387.887H217.146V372.442H220.394V408.33H217.146V402.933H217.022C216.542 404.127 215.873 405.163 215.013 406.042C214.153 406.904 213.153 407.584 212.012 408.082C210.871 408.562 209.615 408.803 208.242 408.803ZM208.862 405.868C210.483 405.868 211.913 405.437 213.153 404.575C214.409 403.696 215.385 402.469 216.079 400.894C216.79 399.302 217.146 397.47 217.146 395.398V395.373C217.146 393.3 216.79 391.476 216.079 389.901C215.368 388.326 214.393 387.107 213.153 386.245C211.913 385.367 210.483 384.927 208.862 384.927C207.209 384.927 205.763 385.358 204.523 386.22C203.299 387.066 202.348 388.276 201.671 389.852C201.009 391.41 200.679 393.25 200.679 395.373V395.398C200.679 397.52 201.009 399.369 201.671 400.944C202.348 402.519 203.299 403.738 204.523 404.6C205.763 405.445 207.209 405.868 208.862 405.868Z" fill="#EFEFEF"/>
<path d="M2.77756 459.265V423.377H6.6463L19.9389 455.012H20.0629L33.3555 423.377H37.249V459.265H34.0747V429.744H32.4627L36.2571 424.148L21.4765 459.265H18.5253L3.74474 424.148L7.53909 429.744H5.92711V459.265H2.77756Z" fill="#EFEFEF"/>
<path d="M50.4176 459.738C48.7313 459.738 47.2433 459.423 45.9537 458.792C44.6641 458.146 43.6556 457.25 42.9282 456.106C42.2172 454.946 41.8618 453.611 41.8618 452.102V452.053C41.8618 450.577 42.2172 449.309 42.9282 448.247C43.6556 447.186 44.7055 446.349 46.0777 445.735C47.4665 445.105 49.1446 444.732 51.112 444.616L60.7839 443.995V446.556L51.5088 447.178C49.4918 447.327 47.9294 447.825 46.8217 448.67C45.7305 449.499 45.1849 450.627 45.1849 452.053V452.102C45.1849 453.528 45.7305 454.681 46.8217 455.559C47.9129 456.421 49.3265 456.853 51.0624 456.853C52.5835 456.853 53.9475 456.538 55.1544 455.907C56.3778 455.261 57.345 454.382 58.0559 453.271C58.7834 452.16 59.1471 450.917 59.1471 449.541V441.856C59.1471 439.982 58.585 438.515 57.4607 437.454C56.353 436.392 54.7906 435.862 52.7736 435.862C50.9054 435.862 49.3761 436.285 48.1857 437.13C47.0118 437.976 46.2844 439.136 46.0033 440.612L45.9537 440.861H42.8042L42.829 440.562C42.9943 439.07 43.4985 437.752 44.3417 436.608C45.1849 435.464 46.3257 434.569 47.7641 433.922C49.2025 433.259 50.8888 432.927 52.8232 432.927C54.7906 432.927 56.4853 433.284 57.9071 433.997C59.3455 434.693 60.4532 435.688 61.2303 436.981C62.0239 438.274 62.4207 439.8 62.4207 441.557V459.265H59.1471V454.515H59.0727C58.6098 455.559 57.9402 456.471 57.0639 457.25C56.1877 458.03 55.1792 458.643 54.0384 459.091C52.8976 459.522 51.6907 459.738 50.4176 459.738Z" fill="#EFEFEF"/>
<path d="M67.9262 459.265V433.4H71.1997V437.827H71.2741C71.9355 436.417 72.977 435.257 74.3989 434.345C75.8207 433.416 77.565 432.952 79.6316 432.952C82.4918 432.952 84.7238 433.814 86.3275 435.539C87.9312 437.263 88.7331 439.65 88.7331 442.701V459.265H85.4595V443.248C85.4595 440.844 84.8809 439.012 83.7235 437.752C82.5662 436.492 80.8881 435.862 78.6892 435.862C77.1847 435.862 75.8703 436.202 74.7461 436.882C73.6218 437.561 72.7456 438.506 72.1173 439.717C71.5056 440.911 71.1997 442.32 71.1997 443.945V459.265H67.9262Z" fill="#EFEFEF"/>
<path d="M101.902 459.738C100.215 459.738 98.7273 459.423 97.4377 458.792C96.1482 458.146 95.1396 457.25 94.4122 456.106C93.7013 454.946 93.3458 453.611 93.3458 452.102V452.053C93.3458 450.577 93.7013 449.309 94.4122 448.247C95.1396 447.186 96.1895 446.349 97.5617 445.735C98.9505 445.105 100.629 444.732 102.596 444.616L112.268 443.995V446.556L102.993 447.178C100.976 447.327 99.4134 447.825 98.3057 448.67C97.2145 449.499 96.669 450.627 96.669 452.053V452.102C96.669 453.528 97.2145 454.681 98.3057 455.559C99.3969 456.421 100.81 456.853 102.546 456.853C104.068 456.853 105.431 456.538 106.638 455.907C107.862 455.261 108.829 454.382 109.54 453.271C110.267 452.16 110.631 450.917 110.631 449.541V441.856C110.631 439.982 110.069 438.515 108.945 437.454C107.837 436.392 106.275 435.862 104.258 435.862C102.389 435.862 100.86 436.285 99.6697 437.13C98.4959 437.976 97.7684 439.136 97.4873 440.612L97.4377 440.861H94.2882L94.313 440.562C94.4783 439.07 94.9826 437.752 95.8258 436.608C96.669 435.464 97.8097 434.569 99.2481 433.922C100.686 433.259 102.373 432.927 104.307 432.927C106.275 432.927 107.969 433.284 109.391 433.997C110.83 434.693 111.937 435.688 112.714 436.981C113.508 438.274 113.905 439.8 113.905 441.557V459.265H110.631V454.515H110.557C110.094 455.559 109.424 456.471 108.548 457.25C107.672 458.03 106.663 458.643 105.522 459.091C104.382 459.522 103.175 459.738 101.902 459.738Z" fill="#EFEFEF"/>
<path d="M130.124 468.442C128.09 468.442 126.321 468.144 124.817 467.547C123.312 466.967 122.089 466.179 121.146 465.184C120.22 464.189 119.609 463.078 119.311 461.852L119.261 461.653H122.56L122.659 461.876C123.089 462.921 123.94 463.783 125.213 464.463C126.503 465.159 128.131 465.507 130.099 465.507C132.562 465.507 134.48 464.861 135.852 463.568C137.241 462.274 137.936 460.525 137.936 458.32V453.744H137.836C137.39 454.888 136.737 455.899 135.877 456.778C135.034 457.64 134.034 458.32 132.876 458.817C131.719 459.315 130.446 459.563 129.057 459.563C126.891 459.563 124.982 459.016 123.329 457.922C121.692 456.811 120.41 455.261 119.485 453.271C118.575 451.265 118.121 448.919 118.121 446.233V446.208C118.121 443.539 118.584 441.209 119.509 439.219C120.452 437.23 121.741 435.688 123.378 434.593C125.031 433.483 126.941 432.927 129.107 432.927C130.496 432.927 131.76 433.192 132.901 433.723C134.042 434.237 135.034 434.942 135.877 435.837C136.72 436.732 137.373 437.752 137.836 438.896H137.936V433.4H141.184V458.618C141.184 460.608 140.738 462.332 139.845 463.791C138.952 465.267 137.679 466.411 136.026 467.224C134.373 468.036 132.405 468.442 130.124 468.442ZM129.702 456.629C131.322 456.629 132.752 456.198 133.992 455.335C135.232 454.457 136.2 453.238 136.894 451.68C137.588 450.121 137.936 448.305 137.936 446.233V446.208C137.936 444.135 137.588 442.328 136.894 440.786C136.2 439.228 135.232 438.017 133.992 437.155C132.752 436.293 131.322 435.862 129.702 435.862C128.049 435.862 126.602 436.293 125.362 437.155C124.122 438.001 123.163 439.203 122.485 440.761C121.808 442.303 121.469 444.119 121.469 446.208V446.233C121.469 448.339 121.808 450.171 122.485 451.729C123.163 453.288 124.122 454.498 125.362 455.36C126.602 456.206 128.049 456.629 129.702 456.629Z" fill="#EFEFEF"/>
<path d="M157.279 459.738C154.865 459.738 152.782 459.199 151.03 458.121C149.277 457.027 147.922 455.485 146.963 453.495C146.02 451.489 145.549 449.126 145.549 446.407V446.382C145.549 443.68 146.02 441.317 146.963 439.294C147.922 437.271 149.261 435.704 150.98 434.593C152.7 433.483 154.708 432.927 157.006 432.927C159.305 432.927 161.289 433.466 162.958 434.544C164.645 435.605 165.943 437.105 166.852 439.045C167.778 440.985 168.241 443.248 168.241 445.835V447.128H147.186V444.517H166.654L164.992 446.88V445.636C164.992 443.514 164.645 441.731 163.95 440.289C163.272 438.83 162.33 437.727 161.123 436.981C159.933 436.235 158.552 435.862 156.982 435.862C155.411 435.862 154.014 436.243 152.791 437.006C151.567 437.769 150.6 438.888 149.889 440.363C149.195 441.823 148.847 443.58 148.847 445.636V446.88C148.847 448.985 149.195 450.776 149.889 452.252C150.6 453.727 151.592 454.855 152.865 455.634C154.138 456.413 155.634 456.803 157.354 456.803C158.61 456.803 159.734 456.612 160.726 456.231C161.718 455.833 162.545 455.277 163.206 454.564C163.868 453.852 164.339 453.023 164.62 452.077L164.694 451.854H167.918L167.869 452.102C167.637 453.197 167.216 454.216 166.604 455.161C166.009 456.09 165.248 456.902 164.322 457.599C163.396 458.278 162.338 458.809 161.148 459.19C159.958 459.555 158.668 459.738 157.279 459.738Z" fill="#EFEFEF"/>
<path d="M172.63 459.265V433.4H175.904V437.876H175.978C176.507 436.434 177.408 435.257 178.681 434.345C179.954 433.416 181.492 432.952 183.294 432.952C184.567 432.952 185.7 433.184 186.692 433.648C187.7 434.096 188.552 434.734 189.246 435.563C189.94 436.376 190.445 437.329 190.759 438.424H190.858C191.271 437.346 191.858 436.401 192.619 435.588C193.396 434.759 194.322 434.113 195.396 433.648C196.471 433.184 197.661 432.952 198.967 432.952C200.654 432.952 202.117 433.309 203.357 434.021C204.613 434.734 205.589 435.738 206.283 437.031C206.978 438.307 207.325 439.825 207.325 441.582V459.265H204.051V442.328C204.051 440.985 203.812 439.833 203.332 438.871C202.853 437.893 202.167 437.147 201.274 436.633C200.398 436.119 199.331 435.862 198.075 435.862C196.802 435.862 195.677 436.169 194.702 436.782C193.726 437.379 192.966 438.216 192.42 439.294C191.875 440.355 191.602 441.582 191.602 442.975V459.265H188.328V442.03C188.328 440.786 188.08 439.709 187.584 438.797C187.088 437.868 186.394 437.147 185.501 436.633C184.625 436.119 183.6 435.862 182.426 435.862C181.153 435.862 180.029 436.185 179.053 436.832C178.078 437.462 177.309 438.341 176.747 439.468C176.185 440.596 175.904 441.905 175.904 443.398V459.265H172.63Z" fill="#EFEFEF"/>
<path d="M223.296 459.738C220.882 459.738 218.799 459.199 217.046 458.121C215.294 457.027 213.938 455.485 212.979 453.495C212.037 451.489 211.566 449.126 211.566 446.407V446.382C211.566 443.68 212.037 441.317 212.979 439.294C213.938 437.271 215.277 435.704 216.997 434.593C218.716 433.483 220.725 432.927 223.023 432.927C225.321 432.927 227.305 433.466 228.975 434.544C230.661 435.605 231.959 437.105 232.869 439.045C233.794 440.985 234.257 443.248 234.257 445.835V447.128H213.202V444.517H232.67L231.009 446.88V445.636C231.009 443.514 230.661 441.731 229.967 440.289C229.289 438.83 228.347 437.727 227.14 436.981C225.949 436.235 224.569 435.862 222.998 435.862C221.428 435.862 220.031 436.243 218.807 437.006C217.584 437.769 216.616 438.888 215.906 440.363C215.211 441.823 214.864 443.58 214.864 445.636V446.88C214.864 448.985 215.211 450.776 215.906 452.252C216.616 453.727 217.608 454.855 218.882 455.634C220.155 456.413 221.651 456.803 223.37 456.803C224.627 456.803 225.751 456.612 226.743 456.231C227.735 455.833 228.562 455.277 229.223 454.564C229.884 453.852 230.355 453.023 230.637 452.077L230.711 451.854H233.935L233.885 452.102C233.654 453.197 233.232 454.216 232.621 455.161C232.025 456.09 231.265 456.902 230.339 457.599C229.413 458.278 228.355 458.809 227.165 459.19C225.974 459.555 224.685 459.738 223.296 459.738Z" fill="#EFEFEF"/>
<path d="M238.647 459.265V433.4H241.92V437.827H241.995C242.656 436.417 243.698 435.257 245.12 434.345C246.541 433.416 248.286 432.952 250.352 432.952C253.212 432.952 255.444 433.814 257.048 435.539C258.652 437.263 259.454 439.65 259.454 442.701V459.265H256.18V443.248C256.18 440.844 255.602 439.012 254.444 437.752C253.287 436.492 251.609 435.862 249.41 435.862C247.905 435.862 246.591 436.202 245.467 436.882C244.342 437.561 243.466 438.506 242.838 439.717C242.226 440.911 241.92 442.32 241.92 443.945V459.265H238.647Z" fill="#EFEFEF"/>
<path d="M272.672 459.738C270.556 459.738 268.969 459.215 267.91 458.171C266.869 457.11 266.348 455.452 266.348 453.197V436.16H262.554V433.4H266.348V426.411H269.721V433.4H274.805V436.16H269.721V453.147C269.721 454.573 270.018 455.568 270.614 456.131C271.225 456.695 272.135 456.977 273.342 456.977C273.623 456.977 273.887 456.969 274.135 456.952C274.4 456.919 274.623 456.894 274.805 456.877V459.539C274.557 459.588 274.234 459.63 273.838 459.663C273.457 459.713 273.069 459.738 272.672 459.738Z" fill="#EFEFEF"/>
<path d="M305.085 459.837C301.811 459.837 298.96 459.074 296.529 457.549C294.099 456.007 292.222 453.852 290.9 451.083C289.577 448.314 288.916 445.056 288.916 441.309V441.284C288.916 437.52 289.577 434.262 290.9 431.51C292.222 428.741 294.091 426.602 296.504 425.093C298.935 423.568 301.795 422.805 305.085 422.805C307.548 422.805 309.772 423.286 311.756 424.247C313.74 425.192 315.385 426.511 316.691 428.202C317.997 429.893 318.874 431.858 319.32 434.096L319.37 434.345H315.972L315.848 433.897C315.385 432.272 314.666 430.871 313.691 429.694C312.715 428.5 311.5 427.58 310.045 426.933C308.607 426.27 306.953 425.939 305.085 425.939C302.506 425.939 300.257 426.569 298.34 427.829C296.438 429.089 294.967 430.871 293.925 433.176C292.884 435.464 292.363 438.167 292.363 441.284V441.309C292.363 444.409 292.884 447.112 293.925 449.416C294.983 451.721 296.463 453.512 298.364 454.788C300.282 456.065 302.522 456.703 305.085 456.703C306.937 456.703 308.582 456.38 310.02 455.733C311.459 455.07 312.674 454.133 313.666 452.923C314.674 451.696 315.418 450.229 315.898 448.521L315.972 448.297H319.37L319.32 448.546C318.874 450.801 317.997 452.774 316.691 454.465C315.385 456.156 313.74 457.474 311.756 458.419C309.789 459.364 307.565 459.837 305.085 459.837Z" fill="#EFEFEF"/>
<path d="M334.249 459.738C331.836 459.738 329.752 459.199 328 458.121C326.247 457.027 324.892 455.485 323.933 453.495C322.99 451.489 322.519 449.126 322.519 446.407V446.382C322.519 443.68 322.99 441.317 323.933 439.294C324.892 437.271 326.231 435.704 327.95 434.593C329.67 433.483 331.679 432.927 333.977 432.927C336.275 432.927 338.259 433.466 339.929 434.544C341.615 435.605 342.913 437.105 343.822 439.045C344.748 440.985 345.211 443.248 345.211 445.835V447.128H324.156V444.517H343.624L341.962 446.88V445.636C341.962 443.514 341.615 441.731 340.921 440.289C340.243 438.83 339.3 437.727 338.093 436.981C336.903 436.235 335.522 435.862 333.952 435.862C332.381 435.862 330.984 436.243 329.761 437.006C328.537 437.769 327.57 438.888 326.859 440.363C326.165 441.823 325.818 443.58 325.818 445.636V446.88C325.818 448.985 326.165 450.776 326.859 452.252C327.57 453.727 328.562 454.855 329.835 455.634C331.108 456.413 332.604 456.803 334.324 456.803C335.58 456.803 336.705 456.612 337.697 456.231C338.689 455.833 339.515 455.277 340.177 454.564C340.838 453.852 341.309 453.023 341.59 452.077L341.664 451.854H344.888L344.839 452.102C344.607 453.197 344.186 454.216 343.574 455.161C342.979 456.09 342.218 456.902 341.292 457.599C340.367 458.278 339.309 458.809 338.118 459.19C336.928 459.555 335.638 459.738 334.249 459.738Z" fill="#EFEFEF"/>
<path d="M349.6 459.265V433.4H352.874V437.827H352.948C353.61 436.417 354.651 435.257 356.073 434.345C357.495 433.416 359.239 432.952 361.306 432.952C364.166 432.952 366.398 433.814 368.002 435.539C369.605 437.263 370.407 439.65 370.407 442.701V459.265H367.134V443.248C367.134 440.844 366.555 439.012 365.398 437.752C364.24 436.492 362.562 435.862 360.363 435.862C358.859 435.862 357.545 436.202 356.42 436.882C355.296 437.561 354.42 438.506 353.792 439.717C353.18 440.911 352.874 442.32 352.874 443.945V459.265H349.6Z" fill="#EFEFEF"/>
<path d="M383.625 459.738C381.509 459.738 379.922 459.215 378.864 458.171C377.822 457.11 377.302 455.452 377.302 453.197V436.16H373.507V433.4H377.302V426.411H380.674V433.4H385.758V436.16H380.674V453.147C380.674 454.573 380.972 455.568 381.567 456.131C382.179 456.695 383.088 456.977 384.295 456.977C384.576 456.977 384.841 456.969 385.089 456.952C385.353 456.919 385.576 456.894 385.758 456.877V459.539C385.51 459.588 385.188 459.63 384.791 459.663C384.411 459.713 384.022 459.738 383.625 459.738Z" fill="#EFEFEF"/>
<path d="M399.919 459.738C397.505 459.738 395.422 459.199 393.669 458.121C391.917 457.027 390.561 455.485 389.602 453.495C388.66 451.489 388.189 449.126 388.189 446.407V446.382C388.189 443.68 388.66 441.317 389.602 439.294C390.561 437.271 391.9 435.704 393.62 434.593C395.339 433.483 397.348 432.927 399.646 432.927C401.944 432.927 403.928 433.466 405.598 434.544C407.284 435.605 408.582 437.105 409.491 439.045C410.417 440.985 410.88 443.248 410.88 445.835V447.128H389.825V444.517H409.293L407.632 446.88V445.636C407.632 443.514 407.284 441.731 406.59 440.289C405.912 438.83 404.97 437.727 403.763 436.981C402.572 436.235 401.192 435.862 399.621 435.862C398.051 435.862 396.654 436.243 395.43 437.006C394.207 437.769 393.239 438.888 392.529 440.363C391.834 441.823 391.487 443.58 391.487 445.636V446.88C391.487 448.985 391.834 450.776 392.529 452.252C393.239 453.727 394.231 454.855 395.504 455.634C396.778 456.413 398.274 456.803 399.993 456.803C401.25 456.803 402.374 456.612 403.366 456.231C404.358 455.833 405.185 455.277 405.846 454.564C406.507 453.852 406.978 453.023 407.26 452.077L407.334 451.854H410.558L410.508 452.102C410.277 453.197 409.855 454.216 409.243 455.161C408.648 456.09 407.888 456.902 406.962 457.599C406.036 458.278 404.978 458.809 403.788 459.19C402.597 459.555 401.308 459.738 399.919 459.738Z" fill="#EFEFEF"/>
<path d="M415.27 459.265V433.4H418.543V438.05H418.618C419.081 436.459 419.858 435.207 420.949 434.295C422.057 433.383 423.396 432.927 424.966 432.927C425.396 432.927 425.793 432.96 426.157 433.027C426.521 433.093 426.802 433.159 427 433.226V436.434C426.785 436.334 426.463 436.252 426.033 436.185C425.603 436.102 425.099 436.061 424.52 436.061C423.313 436.061 422.255 436.359 421.346 436.956C420.453 437.536 419.759 438.366 419.263 439.443C418.783 440.521 418.543 441.789 418.543 443.248V459.265H415.27Z" fill="#EFEFEF"/>
<path d="M29.5371 268.791V235.93L172.794 252.545L29.5371 268.791Z" fill="#EFEFEF"/>
<path d="M84.9198 303.497V276.913L172.794 263.622L84.9198 303.497Z" fill="#EFEFEF"/>
<path d="M47.9983 43.5677C28.9164 39.5974 18.4152 38.0256 0 36.1833V213.777L172.794 241.469C125.001 209.222 97.7355 198.178 47.9983 191.624V43.5677Z" fill="#EFEFEF"/>
<path d="M172.794 54.6443C146.949 22.8915 84.551 1.84609 64.9824 0V176.486C100.058 182.763 136.611 195.316 172.794 223.008V54.6443Z" fill="#EFEFEF"/>
<path d="M212.794 116.673V66.7246H221.724V116.673H212.794Z" fill="#EFEFEF"/>
<path d="M243.981 117.4C240.774 117.4 238.028 116.927 235.743 115.981C233.482 115.034 231.705 113.708 230.413 112C229.143 110.269 228.37 108.273 228.093 106.012L228.059 105.7H236.539L236.609 106.012C236.932 107.604 237.693 108.839 238.893 109.715C240.116 110.592 241.824 111.031 244.016 111.031C245.424 111.031 246.624 110.858 247.616 110.512C248.608 110.165 249.37 109.658 249.9 108.989C250.454 108.319 250.731 107.535 250.731 106.635V106.6C250.731 105.516 250.362 104.639 249.623 103.969C248.885 103.277 247.558 102.712 245.643 102.273L239.551 100.923C237.22 100.393 235.27 99.6658 233.701 98.7427C232.132 97.8197 230.955 96.6774 230.17 95.3159C229.386 93.9314 228.993 92.3276 228.993 90.5046V90.4699C228.993 88.2316 229.605 86.2701 230.828 84.5855C232.051 82.901 233.77 81.5856 235.985 80.6395C238.201 79.6934 240.774 79.2203 243.704 79.2203C246.75 79.2203 249.358 79.728 251.527 80.7434C253.696 81.7587 255.369 83.1202 256.546 84.8278C257.746 86.5355 258.392 88.4508 258.485 90.5738L258.519 90.9545H250.489L250.454 90.6776C250.27 89.2008 249.6 87.9893 248.447 87.0431C247.293 86.0739 245.712 85.5893 243.704 85.5893C242.435 85.5893 241.328 85.7739 240.381 86.1432C239.458 86.5124 238.743 87.0316 238.235 87.7008C237.751 88.37 237.508 89.1546 237.508 90.0546V90.0892C237.508 90.7815 237.682 91.4045 238.028 91.9583C238.374 92.5122 238.928 92.9968 239.689 93.4121C240.451 93.8044 241.466 94.1506 242.735 94.4506L248.827 95.8005C252.635 96.6543 255.346 97.8774 256.962 99.4696C258.577 101.039 259.385 103.15 259.385 105.804V105.839C259.385 108.146 258.727 110.177 257.412 111.931C256.096 113.661 254.273 115.011 251.943 115.981C249.635 116.927 246.981 117.4 243.981 117.4Z" fill="#EFEFEF"/>
<path d="M281.122 117.4C277.522 117.4 274.396 116.638 271.742 115.115C269.088 113.569 267.023 111.377 265.546 108.539C264.092 105.677 263.365 102.273 263.365 98.3274V98.2581C263.365 94.3352 264.104 90.9545 265.581 88.1162C267.057 85.2547 269.123 83.0625 271.777 81.5395C274.43 79.9934 277.534 79.2203 281.088 79.2203C284.665 79.2203 287.78 79.9934 290.434 81.5395C293.11 83.0625 295.187 85.2432 296.664 88.0816C298.141 90.9199 298.879 94.3121 298.879 98.2581V98.3274C298.879 102.296 298.141 105.712 296.664 108.573C295.21 111.412 293.157 113.592 290.503 115.115C287.849 116.638 284.722 117.4 281.122 117.4ZM281.157 110.442C282.98 110.442 284.561 109.969 285.899 109.023C287.238 108.077 288.264 106.704 288.98 104.904C289.718 103.081 290.087 100.889 290.087 98.3274V98.2581C290.087 95.7198 289.718 93.5506 288.98 91.7507C288.241 89.9507 287.191 88.5777 285.83 87.6316C284.491 86.6855 282.911 86.2124 281.088 86.2124C279.311 86.2124 277.742 86.6855 276.38 87.6316C275.042 88.5777 273.992 89.9507 273.23 91.7507C272.492 93.5506 272.123 95.7198 272.123 98.2581V98.3274C272.123 100.889 272.492 103.081 273.23 104.904C273.992 106.704 275.042 108.077 276.38 109.023C277.742 109.969 279.334 110.442 281.157 110.442Z" fill="#EFEFEF"/>
<path d="M304.66 116.673V66.7246H313.279V116.673H304.66Z" fill="#EFEFEF"/>
<path d="M331.451 117.296C329.028 117.296 326.882 116.834 325.013 115.911C323.167 114.965 321.725 113.661 320.686 112C319.671 110.315 319.163 108.389 319.163 106.219V106.15C319.163 103.958 319.706 102.089 320.79 100.543C321.898 98.9735 323.49 97.7389 325.567 96.8389C327.644 95.9159 330.159 95.3621 333.113 95.1775L347.132 94.3121V100.023L334.324 100.82C332.201 100.958 330.574 101.466 329.444 102.343C328.313 103.219 327.748 104.385 327.748 105.839V105.873C327.748 107.373 328.313 108.562 329.444 109.439C330.598 110.292 332.121 110.719 334.013 110.719C335.674 110.719 337.151 110.385 338.443 109.715C339.759 109.046 340.797 108.135 341.559 106.981C342.32 105.827 342.701 104.523 342.701 103.069V92.0622C342.701 90.2161 342.113 88.7623 340.936 87.7008C339.782 86.6162 338.109 86.0739 335.917 86.0739C333.886 86.0739 332.259 86.5124 331.036 87.3893C329.813 88.2431 329.051 89.3507 328.751 90.7122L328.682 91.0238H320.721L320.756 90.6084C320.94 88.4392 321.667 86.5008 322.936 84.7932C324.205 83.0625 325.959 81.701 328.198 80.7087C330.459 79.7165 333.136 79.2203 336.228 79.2203C339.297 79.2203 341.951 79.728 344.189 80.7434C346.451 81.7587 348.193 83.1779 349.416 85.0009C350.662 86.8239 351.285 88.97 351.285 91.4391V116.673H342.701V111.031H342.493C341.801 112.3 340.901 113.408 339.793 114.354C338.686 115.3 337.417 116.027 335.986 116.534C334.578 117.042 333.067 117.296 331.451 117.296Z" fill="#EFEFEF"/>
<path d="M217.259 171.052V163.852H229.824C233.055 163.852 235.547 163.033 237.301 161.394C239.078 159.733 239.966 157.402 239.966 154.402V154.333C239.966 151.31 239.078 148.979 237.301 147.341C235.547 145.703 233.055 144.883 229.824 144.883H217.259V137.614H232.039C235.409 137.614 238.362 138.307 240.901 139.691C243.462 141.076 245.458 143.026 246.889 145.541C248.32 148.033 249.035 150.952 249.035 154.298V154.368C249.035 157.691 248.32 160.61 246.889 163.125C245.458 165.617 243.462 167.567 240.901 168.975C238.362 170.359 235.409 171.052 232.039 171.052H217.259ZM212.794 187.563V137.614H221.724V187.563H212.794Z" fill="#EFEFEF"/>
<path d="M267.207 188.29C264.508 188.29 262.211 187.747 260.319 186.663C258.45 185.555 257.019 183.974 256.027 181.921C255.035 179.867 254.539 177.432 254.539 174.617V150.872H263.123V172.886C263.123 175.494 263.734 177.513 264.958 178.944C266.181 180.351 268.027 181.055 270.496 181.055C271.719 181.055 272.826 180.848 273.819 180.432C274.834 179.994 275.699 179.382 276.415 178.598C277.13 177.813 277.672 176.878 278.042 175.794C278.411 174.686 278.596 173.463 278.596 172.125V150.872H287.214V187.563H278.596V181.817H278.422C277.776 183.109 276.934 184.251 275.896 185.244C274.857 186.213 273.611 186.963 272.157 187.493C270.703 188.024 269.054 188.29 267.207 188.29Z" fill="#EFEFEF"/>
<path d="M314.767 188.29C313.014 188.29 311.398 188.013 309.921 187.459C308.468 186.882 307.187 186.086 306.079 185.07C304.972 184.032 304.06 182.786 303.345 181.332H303.172V187.563H294.553V137.614H303.172V157.171H303.345C304.06 155.695 304.983 154.437 306.114 153.399C307.245 152.337 308.548 151.529 310.025 150.976C311.502 150.399 313.106 150.11 314.837 150.11C317.906 150.11 320.571 150.883 322.832 152.429C325.094 153.952 326.848 156.145 328.094 159.006C329.34 161.844 329.963 165.237 329.963 169.183V169.217C329.963 173.14 329.34 176.532 328.094 179.394C326.871 182.255 325.117 184.459 322.832 186.005C320.571 187.528 317.883 188.29 314.767 188.29ZM312.206 181.055C314.052 181.055 315.644 180.582 316.983 179.636C318.344 178.667 319.383 177.294 320.098 175.517C320.813 173.74 321.171 171.64 321.171 169.217V169.183C321.171 166.737 320.802 164.637 320.063 162.883C319.348 161.129 318.321 159.779 316.983 158.833C315.644 157.864 314.052 157.379 312.206 157.379C310.429 157.379 308.86 157.864 307.498 158.833C306.16 159.802 305.098 161.175 304.314 162.952C303.529 164.706 303.137 166.783 303.137 169.183V169.217C303.137 171.617 303.518 173.706 304.279 175.482C305.064 177.259 306.137 178.632 307.498 179.601C308.86 180.571 310.429 181.055 312.206 181.055Z" fill="#EFEFEF"/>
<path d="M335.744 187.563V137.614H344.362V187.563H335.744Z" fill="#EFEFEF"/>
<path d="M351.943 187.563V150.872H360.562V187.563H351.943ZM356.235 145.61C354.897 145.61 353.766 145.149 352.843 144.226C351.92 143.303 351.458 142.195 351.458 140.903C351.458 139.587 351.92 138.48 352.843 137.58C353.766 136.657 354.897 136.195 356.235 136.195C357.597 136.195 358.739 136.657 359.662 137.58C360.585 138.48 361.046 139.587 361.046 140.903C361.046 142.195 360.585 143.303 359.662 144.226C358.739 145.149 357.597 145.61 356.235 145.61Z" fill="#EFEFEF"/>
<path d="M384.1 188.29C380.477 188.29 377.338 187.517 374.684 185.97C372.031 184.424 369.977 182.221 368.523 179.359C367.092 176.498 366.377 173.106 366.377 169.183V169.148C366.377 165.248 367.104 161.879 368.558 159.041C370.012 156.179 372.054 153.975 374.684 152.429C377.338 150.883 380.442 150.11 383.996 150.11C387.226 150.11 390.019 150.733 392.372 151.979C394.726 153.202 396.572 154.829 397.911 156.86C399.249 158.891 400.011 161.129 400.195 163.575V163.817H392.095L392.026 163.54C391.68 161.764 390.838 160.252 389.499 159.006C388.184 157.737 386.384 157.102 384.1 157.102C382.3 157.102 380.719 157.598 379.357 158.591C378.019 159.56 376.981 160.944 376.242 162.744C375.504 164.544 375.134 166.702 375.134 169.217V169.252C375.134 171.79 375.504 173.959 376.242 175.759C377.004 177.559 378.054 178.944 379.392 179.913C380.753 180.859 382.334 181.332 384.134 181.332C386.326 181.332 388.092 180.744 389.43 179.567C390.792 178.367 391.668 176.809 392.061 174.894L392.13 174.582H400.264L400.23 174.825C399.999 177.363 399.191 179.648 397.807 181.678C396.422 183.709 394.565 185.324 392.234 186.524C389.903 187.701 387.192 188.29 384.1 188.29Z" fill="#EFEFEF"/>
<path d="M212.794 258.453V208.504H221.724V250.941H244.362V258.453H212.794Z" fill="#EFEFEF"/>
<path d="M250.177 258.453V221.762H258.796V258.453H250.177ZM254.469 216.5C253.131 216.5 252 216.039 251.077 215.116C250.154 214.193 249.693 213.085 249.693 211.793C249.693 210.477 250.154 209.37 251.077 208.47C252 207.547 253.131 207.085 254.469 207.085C255.831 207.085 256.973 207.547 257.896 208.47C258.819 209.37 259.281 210.477 259.281 211.793C259.281 213.085 258.819 214.193 257.896 215.116C256.973 216.039 255.831 216.5 254.469 216.5Z" fill="#EFEFEF"/>
<path d="M286.591 259.179C284.838 259.179 283.222 258.903 281.745 258.349C280.292 257.772 279.011 256.976 277.903 255.96C276.796 254.922 275.884 253.676 275.169 252.222H274.996V258.453H266.377V208.504H274.996V228.061H275.169C275.884 226.584 276.807 225.327 277.938 224.288C279.069 223.227 280.372 222.419 281.849 221.865C283.326 221.288 284.93 221 286.661 221C289.73 221 292.395 221.773 294.656 223.319C296.918 224.842 298.672 227.034 299.918 229.896C301.164 232.734 301.787 236.126 301.787 240.072V240.107C301.787 244.03 301.164 247.422 299.918 250.284C298.695 253.145 296.941 255.349 294.656 256.895C292.395 258.418 289.707 259.179 286.591 259.179ZM284.03 251.945C285.876 251.945 287.468 251.472 288.807 250.526C290.168 249.557 291.207 248.184 291.922 246.407C292.637 244.63 292.995 242.53 292.995 240.107V240.072C292.995 237.626 292.626 235.526 291.887 233.773C291.172 232.019 290.145 230.669 288.807 229.723C287.468 228.754 285.876 228.269 284.03 228.269C282.253 228.269 280.684 228.754 279.322 229.723C277.984 230.692 276.922 232.065 276.138 233.842C275.353 235.596 274.961 237.673 274.961 240.072V240.107C274.961 242.507 275.342 244.595 276.103 246.372C276.888 248.149 277.961 249.522 279.322 250.491C280.684 251.46 282.253 251.945 284.03 251.945Z" fill="#EFEFEF"/>
<path d="M307.325 258.453V221.762H315.91V228.096H316.117C316.671 225.881 317.675 224.15 319.129 222.904C320.606 221.635 322.406 221 324.529 221C325.059 221 325.567 221.035 326.052 221.104C326.536 221.173 326.94 221.254 327.263 221.346V229.134C326.917 228.996 326.421 228.881 325.775 228.788C325.152 228.696 324.471 228.65 323.732 228.65C322.117 228.65 320.721 228.984 319.544 229.654C318.367 230.3 317.467 231.257 316.844 232.527C316.221 233.796 315.91 235.342 315.91 237.165V258.453H307.325Z" fill="#EFEFEF"/>
<path d="M341.697 259.076C339.274 259.076 337.128 258.614 335.259 257.691C333.413 256.745 331.971 255.441 330.932 253.78C329.917 252.095 329.409 250.168 329.409 247.999V247.93C329.409 245.738 329.951 243.868 331.036 242.322C332.144 240.753 333.736 239.519 335.813 238.619C337.89 237.696 340.405 237.142 343.359 236.957L357.377 236.092V241.803L344.57 242.599C342.447 242.738 340.82 243.245 339.69 244.122C338.559 244.999 337.993 246.165 337.993 247.618V247.653C337.993 249.153 338.559 250.341 339.69 251.218C340.843 252.072 342.366 252.499 344.259 252.499C345.92 252.499 347.397 252.164 348.689 251.495C350.005 250.826 351.043 249.914 351.804 248.761C352.566 247.607 352.947 246.303 352.947 244.849V233.842C352.947 231.996 352.358 230.542 351.181 229.48C350.028 228.396 348.355 227.854 346.162 227.854C344.132 227.854 342.505 228.292 341.282 229.169C340.059 230.023 339.297 231.13 338.997 232.492L338.928 232.803H330.967L331.001 232.388C331.186 230.219 331.913 228.281 333.182 226.573C334.451 224.842 336.205 223.481 338.443 222.488C340.705 221.496 343.382 221 346.474 221C349.543 221 352.197 221.508 354.435 222.523C356.697 223.538 358.439 224.958 359.662 226.781C360.908 228.604 361.531 230.75 361.531 233.219V258.453H352.947V252.81H352.739C352.047 254.08 351.147 255.187 350.039 256.133C348.932 257.08 347.662 257.806 346.232 258.314C344.824 258.822 343.312 259.076 341.697 259.076Z" fill="#EFEFEF"/>
<path d="M368.523 258.453V221.762H377.107V228.096H377.315C377.869 225.881 378.873 224.15 380.327 222.904C381.803 221.635 383.603 221 385.726 221C386.257 221 386.765 221.035 387.249 221.104C387.734 221.173 388.138 221.254 388.461 221.346V229.134C388.115 228.996 387.619 228.881 386.973 228.788C386.349 228.696 385.669 228.65 384.93 228.65C383.315 228.65 381.919 228.984 380.742 229.654C379.565 230.3 378.665 231.257 378.042 232.527C377.419 233.796 377.107 235.342 377.107 237.165V258.453H368.523Z" fill="#EFEFEF"/>
<path d="M398.984 270.637C398.153 270.637 397.334 270.591 396.526 270.498C395.741 270.429 395.084 270.348 394.553 270.256V263.714C394.876 263.76 395.28 263.818 395.765 263.887C396.249 263.956 396.803 263.991 397.426 263.991C399.087 263.991 400.403 263.702 401.372 263.125C402.341 262.572 403.103 261.522 403.657 259.976L404.176 258.487L390.988 221.762H400.368L409.506 252.914L408.191 251.114H410.026L408.71 252.914L417.848 221.762H426.917L413.695 259.699C412.772 262.375 411.652 264.51 410.337 266.102C409.022 267.718 407.429 268.871 405.56 269.564C403.714 270.279 401.522 270.637 398.984 270.637Z" fill="#EFEFEF"/>
<path fill-rule="evenodd" clip-rule="evenodd" d="M427 337.97C427 337.97 427 340.442 213.976 340.442C0.952718 340.442 0 337.97 0 337.97C0 337.97 0.95266 335.497 213.976 335.497C427 335.497 427 337.97 427 337.97Z" fill="#EFEFEF"/>
</svg>
