<svg width="1080" height="304" viewBox="0 0 1080 304" fill="none" xmlns="http://www.w3.org/2000/svg">
<path d="M491.044 188.067L509.652 138.709H513.107V144.387H511.91L495.97 188.067H491.044ZM499.151 172.914L500.69 168.912H523.197L524.737 172.914H499.151ZM527.918 188.067L512.012 144.387V138.709H514.27L532.809 188.067H527.918Z" fill="black"/>
<path d="M549.912 188.717C546.925 188.717 544.302 187.953 542.045 186.425C539.787 184.898 538.02 182.754 536.743 179.995C535.489 177.213 534.862 173.975 534.862 170.28V170.246C534.862 166.529 535.5 163.303 536.777 160.566C538.054 157.807 539.81 155.663 542.045 154.135C544.302 152.608 546.913 151.844 549.878 151.844C551.748 151.844 553.481 152.174 555.077 152.836C556.674 153.497 558.065 154.443 559.25 155.675C560.459 156.883 561.394 158.309 562.055 159.95H562.192V138.709H566.673V188.067H562.192V180.645H562.021C561.36 182.287 560.436 183.712 559.25 184.92C558.065 186.106 556.685 187.041 555.111 187.725C553.538 188.386 551.805 188.717 549.912 188.717ZM550.767 184.681C553.002 184.681 554.975 184.088 556.685 182.902C558.418 181.694 559.763 180.006 560.721 177.84C561.702 175.651 562.192 173.131 562.192 170.28V170.246C562.192 167.396 561.702 164.887 560.721 162.721C559.741 160.555 558.395 158.879 556.685 157.693C554.975 156.484 553.002 155.88 550.767 155.88C548.487 155.88 546.492 156.473 544.781 157.659C543.094 158.822 541.783 160.486 540.848 162.653C539.935 164.796 539.479 167.327 539.479 170.246V170.28C539.479 173.199 539.935 175.742 540.848 177.908C541.783 180.075 543.094 181.751 544.781 182.936C546.492 184.099 548.487 184.681 550.767 184.681Z" fill="black"/>
<path d="M574.814 188.067V152.494H579.329V158.651H579.432C580.162 156.667 581.404 155.048 583.16 153.793C584.916 152.516 587.037 151.878 589.523 151.878C591.278 151.878 592.841 152.197 594.209 152.836C595.6 153.451 596.774 154.329 597.732 155.469C598.69 156.587 599.385 157.898 599.818 159.403H599.955C600.525 157.921 601.335 156.621 602.384 155.504C603.456 154.363 604.733 153.474 606.215 152.836C607.697 152.197 609.339 151.878 611.141 151.878C613.467 151.878 615.485 152.368 617.195 153.349C618.928 154.329 620.274 155.709 621.231 157.488C622.189 159.243 622.668 161.33 622.668 163.747V188.067H618.153V164.773C618.153 162.926 617.822 161.341 617.161 160.019C616.5 158.673 615.553 157.647 614.322 156.94C613.113 156.233 611.642 155.88 609.909 155.88C608.153 155.88 606.603 156.302 605.257 157.146C603.912 157.966 602.863 159.118 602.11 160.6C601.358 162.06 600.981 163.747 600.981 165.663V188.067H596.466V164.363C596.466 162.653 596.124 161.17 595.44 159.916C594.756 158.639 593.798 157.647 592.567 156.94C591.358 156.233 589.944 155.88 588.325 155.88C586.569 155.88 585.019 156.325 583.673 157.214C582.328 158.08 581.268 159.289 580.492 160.84C579.717 162.39 579.329 164.192 579.329 166.244V188.067H574.814Z" fill="black"/>
<path d="M630.638 188.067V152.494H635.153V188.067H630.638ZM632.896 146.063C632.075 146.063 631.368 145.778 630.775 145.208C630.205 144.615 629.92 143.897 629.92 143.053C629.92 142.232 630.205 141.536 630.775 140.966C631.368 140.373 632.075 140.077 632.896 140.077C633.739 140.077 634.446 140.373 635.016 140.966C635.609 141.536 635.906 142.232 635.906 143.053C635.906 143.897 635.609 144.615 635.016 145.208C634.446 145.778 633.739 146.063 632.896 146.063Z" fill="black"/>
<path d="M643.294 188.067V152.494H647.809V158.582H647.912C648.824 156.644 650.261 155.048 652.222 153.793C654.183 152.516 656.589 151.878 659.439 151.878C663.384 151.878 666.463 153.064 668.675 155.435C670.887 157.807 671.993 161.091 671.993 165.286V188.067H667.478V166.039C667.478 162.732 666.679 160.213 665.083 158.48C663.487 156.746 661.172 155.88 658.139 155.88C656.064 155.88 654.251 156.347 652.701 157.282C651.15 158.217 649.941 159.517 649.075 161.182C648.231 162.824 647.809 164.762 647.809 166.997V188.067H643.294Z" fill="black"/>
<path d="M704.523 188.717C702.197 188.717 700.144 188.284 698.366 187.417C696.587 186.528 695.196 185.297 694.192 183.723C693.212 182.127 692.722 180.291 692.722 178.216V178.148C692.722 176.118 693.212 174.374 694.192 172.914C695.196 171.455 696.644 170.303 698.537 169.459C700.452 168.593 702.767 168.08 705.48 167.92L718.821 167.065V170.588L706.028 171.443C703.246 171.649 701.091 172.333 699.563 173.496C698.058 174.636 697.305 176.187 697.305 178.148V178.216C697.305 180.177 698.058 181.762 699.563 182.971C701.068 184.156 703.017 184.749 705.412 184.749C707.51 184.749 709.391 184.316 711.056 183.45C712.743 182.56 714.077 181.352 715.058 179.824C716.061 178.296 716.563 176.586 716.563 174.693V164.123C716.563 161.547 715.788 159.529 714.237 158.069C712.709 156.61 710.554 155.88 707.772 155.88C705.195 155.88 703.086 156.461 701.444 157.624C699.825 158.787 698.822 160.384 698.434 162.413L698.366 162.755H694.021L694.056 162.345C694.284 160.292 694.979 158.48 696.142 156.906C697.305 155.333 698.879 154.101 700.863 153.212C702.846 152.3 705.172 151.844 707.841 151.844C710.554 151.844 712.892 152.334 714.853 153.315C716.837 154.272 718.365 155.64 719.436 157.419C720.531 159.198 721.078 161.296 721.078 163.713V188.067H716.563V181.534H716.46C715.822 182.971 714.898 184.225 713.69 185.297C712.481 186.368 711.09 187.212 709.517 187.828C707.943 188.421 706.278 188.717 704.523 188.717Z" fill="black"/>
<path d="M728.672 188.067V152.494H733.187V158.582H733.29C734.202 156.644 735.638 155.048 737.6 153.793C739.561 152.516 741.967 151.878 744.817 151.878C748.762 151.878 751.841 153.064 754.053 155.435C756.265 157.807 757.371 161.091 757.371 165.286V188.067H752.855V166.039C752.855 162.732 752.057 160.213 750.461 158.48C748.865 156.746 746.55 155.88 743.517 155.88C741.442 155.88 739.629 156.347 738.078 157.282C736.528 158.217 735.319 159.517 734.453 161.182C733.609 162.824 733.187 164.762 733.187 166.997V188.067H728.672Z" fill="black"/>
<path d="M778.27 188.717C775.283 188.717 772.661 187.953 770.403 186.425C768.145 184.898 766.378 182.754 765.101 179.995C763.847 177.213 763.22 173.975 763.22 170.28V170.246C763.22 166.529 763.858 163.303 765.135 160.566C766.412 157.807 768.168 155.663 770.403 154.135C772.661 152.608 775.272 151.844 778.236 151.844C780.106 151.844 781.839 152.174 783.435 152.836C785.032 153.497 786.423 154.443 787.609 155.675C788.817 156.883 789.752 158.309 790.413 159.95H790.55V138.709H795.031V188.067H790.55V180.645H790.379C789.718 182.287 788.794 183.712 787.609 184.92C786.423 186.106 785.043 187.041 783.47 187.725C781.896 188.386 780.163 188.717 778.27 188.717ZM779.125 184.681C781.36 184.681 783.333 184.088 785.043 182.902C786.776 181.694 788.122 180.006 789.079 177.84C790.06 175.651 790.55 173.131 790.55 170.28V170.246C790.55 167.396 790.06 164.887 789.079 162.721C788.099 160.555 786.753 158.879 785.043 157.693C783.333 156.484 781.36 155.88 779.125 155.88C776.845 155.88 774.85 156.473 773.139 157.659C771.452 158.822 770.141 160.486 769.206 162.653C768.294 164.796 767.838 167.327 767.838 170.246V170.28C767.838 173.199 768.294 175.742 769.206 177.908C770.141 180.075 771.452 181.751 773.139 182.936C774.85 184.099 776.845 184.681 779.125 184.681Z" fill="black"/>
<path d="M494.875 258.12V208.762H500.211L518.545 252.271H518.716L537.051 208.762H542.421V258.12H538.043V217.518H535.819L541.053 209.822L520.666 258.12H516.596L496.209 209.822L501.443 217.518H499.219V258.12H494.875Z" fill="black"/>
<path d="M560.584 258.77C558.258 258.77 556.206 258.337 554.427 257.47C552.649 256.581 551.258 255.349 550.254 253.776C549.274 252.18 548.783 250.344 548.783 248.269V248.2C548.783 246.171 549.274 244.426 550.254 242.967C551.258 241.508 552.706 240.356 554.598 239.512C556.514 238.646 558.829 238.133 561.542 237.973L574.882 237.118V240.641L562.089 241.496C559.307 241.701 557.152 242.385 555.625 243.548C554.12 244.689 553.367 246.239 553.367 248.2V248.269C553.367 250.23 554.12 251.815 555.625 253.023C557.13 254.209 559.079 254.802 561.474 254.802C563.572 254.802 565.453 254.369 567.118 253.502C568.805 252.613 570.139 251.404 571.12 249.876C572.123 248.349 572.625 246.638 572.625 244.746V234.176C572.625 231.599 571.85 229.581 570.299 228.122C568.771 226.662 566.616 225.933 563.834 225.933C561.257 225.933 559.148 226.514 557.506 227.677C555.887 228.84 554.883 230.436 554.496 232.466L554.427 232.808H550.083L550.117 232.397C550.345 230.345 551.041 228.532 552.204 226.959C553.367 225.385 554.94 224.154 556.924 223.265C558.908 222.352 561.234 221.896 563.902 221.896C566.616 221.896 568.953 222.387 570.915 223.367C572.899 224.325 574.426 225.693 575.498 227.472C576.593 229.251 577.14 231.349 577.14 233.766V258.12H572.625V251.587H572.522C571.884 253.023 570.96 254.278 569.752 255.349C568.543 256.421 567.152 257.265 565.578 257.881C564.005 258.473 562.34 258.77 560.584 258.77Z" fill="black"/>
<path d="M584.734 258.12V222.546H589.249V228.635H589.352C590.264 226.697 591.7 225.1 593.661 223.846C595.623 222.569 598.028 221.931 600.879 221.931C604.824 221.931 607.902 223.116 610.114 225.488C612.326 227.86 613.432 231.143 613.432 235.339V258.12H608.917V236.092C608.917 232.785 608.119 230.265 606.523 228.532C604.927 226.799 602.612 225.933 599.579 225.933C597.504 225.933 595.691 226.4 594.14 227.335C592.59 228.27 591.381 229.57 590.515 231.234C589.671 232.876 589.249 234.815 589.249 237.049V258.12H584.734Z" fill="black"/>
<path d="M631.596 258.77C629.27 258.77 627.217 258.337 625.439 257.47C623.66 256.581 622.269 255.349 621.266 253.776C620.285 252.18 619.795 250.344 619.795 248.269V248.2C619.795 246.171 620.285 244.426 621.266 242.967C622.269 241.508 623.717 240.356 625.61 239.512C627.525 238.646 629.84 238.133 632.553 237.973L645.894 237.118V240.641L633.101 241.496C630.319 241.701 628.164 242.385 626.636 243.548C625.131 244.689 624.378 246.239 624.378 248.2V248.269C624.378 250.23 625.131 251.815 626.636 253.023C628.141 254.209 630.091 254.802 632.485 254.802C634.583 254.802 636.464 254.369 638.129 253.502C639.817 252.613 641.151 251.404 642.131 249.876C643.134 248.349 643.636 246.638 643.636 244.746V234.176C643.636 231.599 642.861 229.581 641.31 228.122C639.782 226.662 637.627 225.933 634.845 225.933C632.268 225.933 630.159 226.514 628.517 227.677C626.898 228.84 625.895 230.436 625.507 232.466L625.439 232.808H621.095L621.129 232.397C621.357 230.345 622.052 228.532 623.215 226.959C624.378 225.385 625.952 224.154 627.936 223.265C629.92 222.352 632.246 221.896 634.914 221.896C637.627 221.896 639.965 222.387 641.926 223.367C643.91 224.325 645.438 225.693 646.509 227.472C647.604 229.251 648.151 231.349 648.151 233.766V258.12H643.636V251.587H643.534C642.895 253.023 641.971 254.278 640.763 255.349C639.554 256.421 638.163 257.265 636.59 257.881C635.016 258.473 633.352 258.77 631.596 258.77Z" fill="black"/>
<path d="M670.522 270.742C667.717 270.742 665.277 270.331 663.202 269.51C661.127 268.712 659.439 267.629 658.139 266.261C656.862 264.893 656.019 263.365 655.608 261.677L655.54 261.404H660.089L660.226 261.712C660.819 263.148 661.993 264.334 663.749 265.269C665.528 266.227 667.774 266.706 670.488 266.706C673.886 266.706 676.531 265.816 678.424 264.037C680.339 262.259 681.297 259.853 681.297 256.82V250.526H681.16C680.544 252.1 679.644 253.491 678.458 254.699C677.295 255.885 675.915 256.82 674.319 257.504C672.723 258.188 670.967 258.53 669.051 258.53C666.064 258.53 663.43 257.778 661.15 256.273C658.892 254.745 657.125 252.613 655.848 249.876C654.593 247.117 653.966 243.89 653.966 240.196V240.162C653.966 236.491 654.605 233.287 655.882 230.55C657.182 227.814 658.96 225.693 661.218 224.188C663.498 222.66 666.132 221.896 669.12 221.896C671.035 221.896 672.78 222.261 674.353 222.991C675.926 223.698 677.295 224.667 678.458 225.898C679.621 227.13 680.521 228.532 681.16 230.106H681.297V222.546H685.778V257.231C685.778 259.967 685.162 262.339 683.931 264.345C682.699 266.375 680.943 267.948 678.663 269.066C676.383 270.183 673.669 270.742 670.522 270.742ZM669.94 254.494C672.175 254.494 674.148 253.901 675.858 252.715C677.568 251.507 678.902 249.831 679.86 247.687C680.818 245.544 681.297 243.047 681.297 240.196V240.162C681.297 237.312 680.818 234.826 679.86 232.705C678.902 230.562 677.568 228.897 675.858 227.711C674.148 226.526 672.175 225.933 669.94 225.933C667.66 225.933 665.665 226.526 663.954 227.711C662.244 228.874 660.922 230.528 659.987 232.671C659.052 234.792 658.584 237.289 658.584 240.162V240.196C658.584 243.092 659.052 245.612 659.987 247.756C660.922 249.899 662.244 251.564 663.954 252.75C665.665 253.913 667.66 254.494 669.94 254.494Z" fill="black"/>
<path d="M707.977 258.77C704.648 258.77 701.775 258.029 699.357 256.547C696.94 255.041 695.07 252.921 693.748 250.184C692.448 247.425 691.798 244.176 691.798 240.436V240.402C691.798 236.685 692.448 233.435 693.748 230.653C695.07 227.871 696.917 225.716 699.289 224.188C701.661 222.66 704.431 221.896 707.601 221.896C710.771 221.896 713.507 222.638 715.81 224.12C718.136 225.579 719.927 227.643 721.181 230.311C722.458 232.979 723.096 236.092 723.096 239.649V241.428H694.056V237.836H720.907L718.615 241.086V239.375C718.615 236.457 718.136 234.005 717.179 232.021C716.244 230.014 714.944 228.498 713.279 227.472C711.637 226.446 709.733 225.933 707.567 225.933C705.401 225.933 703.474 226.457 701.786 227.506C700.099 228.555 698.765 230.094 697.784 232.124C696.826 234.131 696.347 236.548 696.347 239.375V241.086C696.347 243.982 696.826 246.445 697.784 248.474C698.765 250.504 700.133 252.054 701.889 253.126C703.645 254.198 705.708 254.734 708.08 254.734C709.813 254.734 711.364 254.471 712.732 253.947C714.1 253.4 715.24 252.636 716.153 251.655C717.065 250.675 717.715 249.534 718.102 248.235L718.205 247.927H722.652L722.583 248.269C722.264 249.774 721.682 251.176 720.839 252.476C720.018 253.753 718.969 254.87 717.692 255.828C716.415 256.763 714.955 257.493 713.313 258.017C711.672 258.519 709.893 258.77 707.977 258.77Z" fill="black"/>
<path d="M729.151 258.12V222.546H733.666V228.703H733.769C734.498 226.719 735.741 225.1 737.497 223.846C739.253 222.569 741.374 221.931 743.859 221.931C745.615 221.931 747.177 222.25 748.545 222.888C749.936 223.504 751.111 224.382 752.069 225.522C753.026 226.64 753.722 227.951 754.155 229.456H754.292C754.862 227.974 755.672 226.674 756.721 225.556C757.792 224.416 759.069 223.527 760.552 222.888C762.034 222.25 763.676 221.931 765.477 221.931C767.803 221.931 769.821 222.421 771.532 223.401C773.265 224.382 774.61 225.762 775.568 227.54C776.526 229.296 777.005 231.383 777.005 233.8V258.12H772.49V234.826C772.49 232.979 772.159 231.394 771.498 230.072C770.836 228.726 769.89 227.7 768.658 226.993C767.45 226.286 765.979 225.933 764.246 225.933C762.49 225.933 760.939 226.355 759.594 227.198C758.249 228.019 757.2 229.171 756.447 230.653C755.694 232.112 755.318 233.8 755.318 235.715V258.12H750.803V234.416C750.803 232.705 750.461 231.223 749.777 229.969C749.093 228.692 748.135 227.7 746.904 226.993C745.695 226.286 744.281 225.933 742.662 225.933C740.906 225.933 739.355 226.377 738.01 227.267C736.665 228.133 735.604 229.342 734.829 230.892C734.054 232.443 733.666 234.245 733.666 236.297V258.12H729.151Z" fill="black"/>
<path d="M799.033 258.77C795.704 258.77 792.831 258.029 790.413 256.547C787.996 255.041 786.126 252.921 784.804 250.184C783.504 247.425 782.854 244.176 782.854 240.436V240.402C782.854 236.685 783.504 233.435 784.804 230.653C786.126 227.871 787.973 225.716 790.345 224.188C792.717 222.66 795.487 221.896 798.657 221.896C801.827 221.896 804.563 222.638 806.866 224.12C809.192 225.579 810.983 227.643 812.237 230.311C813.514 232.979 814.152 236.092 814.152 239.649V241.428H785.111V237.836H811.963L809.671 241.086V239.375C809.671 236.457 809.192 234.005 808.235 232.021C807.3 230.014 806 228.498 804.335 227.472C802.693 226.446 800.789 225.933 798.623 225.933C796.456 225.933 794.53 226.457 792.842 227.506C791.155 228.555 789.821 230.094 788.84 232.124C787.882 234.131 787.403 236.548 787.403 239.375V241.086C787.403 243.982 787.882 246.445 788.84 248.474C789.821 250.504 791.189 252.054 792.945 253.126C794.701 254.198 796.764 254.734 799.136 254.734C800.869 254.734 802.42 254.471 803.788 253.947C805.156 253.4 806.296 252.636 807.208 251.655C808.121 250.675 808.771 249.534 809.158 248.235L809.261 247.927H813.708L813.639 248.269C813.32 249.774 812.738 251.176 811.895 252.476C811.074 253.753 810.025 254.87 808.748 255.828C807.471 256.763 806.011 257.493 804.369 258.017C802.728 258.519 800.949 258.77 799.033 258.77Z" fill="black"/>
<path d="M820.207 258.12V222.546H824.722V228.635H824.824C825.737 226.697 827.173 225.1 829.134 223.846C831.096 222.569 833.501 221.931 836.352 221.931C840.297 221.931 843.375 223.116 845.587 225.488C847.799 227.86 848.905 231.143 848.905 235.339V258.12H844.39V236.092C844.39 232.785 843.592 230.265 841.996 228.532C840.4 226.799 838.085 225.933 835.052 225.933C832.977 225.933 831.164 226.4 829.613 227.335C828.063 228.27 826.854 229.57 825.987 231.234C825.144 232.876 824.722 234.815 824.722 237.049V258.12H820.207Z" fill="black"/>
<path d="M867.137 258.77C864.218 258.77 862.029 258.052 860.57 256.615C859.133 255.155 858.415 252.875 858.415 249.774V226.343H853.181V222.546H858.415V212.935H863.067V222.546H870.079V226.343H863.067V249.705C863.067 251.667 863.477 253.035 864.298 253.81C865.142 254.585 866.396 254.973 868.061 254.973C868.448 254.973 868.813 254.962 869.155 254.939C869.52 254.893 869.828 254.859 870.079 254.836V258.496C869.737 258.565 869.292 258.622 868.745 258.667C868.22 258.736 867.684 258.77 867.137 258.77Z" fill="black"/>
<path d="M911.844 258.907C907.329 258.907 903.395 257.858 900.043 255.76C896.691 253.639 894.103 250.675 892.278 246.866C890.454 243.058 889.542 238.577 889.542 233.424V233.389C889.542 228.213 890.454 223.732 892.278 219.947C894.103 216.138 896.68 213.197 900.009 211.122C903.361 209.024 907.306 207.975 911.844 207.975C915.242 207.975 918.309 208.636 921.045 209.959C923.782 211.259 926.051 213.071 927.852 215.397C929.654 217.723 930.863 220.426 931.478 223.504L931.547 223.846H926.86L926.689 223.23C926.051 220.996 925.059 219.069 923.714 217.45C922.368 215.808 920.692 214.542 918.685 213.653C916.701 212.741 914.421 212.285 911.844 212.285C908.287 212.285 905.185 213.151 902.54 214.884C899.918 216.617 897.888 219.069 896.451 222.238C895.015 225.385 894.297 229.102 894.297 233.389V233.424C894.297 237.688 895.015 241.405 896.451 244.575C897.911 247.744 899.952 250.207 902.574 251.963C905.22 253.719 908.31 254.597 911.844 254.597C914.398 254.597 916.667 254.152 918.651 253.263C920.635 252.351 922.311 251.062 923.679 249.398C925.07 247.71 926.097 245.692 926.758 243.343L926.86 243.035H931.547L931.478 243.377C930.863 246.479 929.654 249.192 927.852 251.518C926.051 253.844 923.782 255.657 921.045 256.957C918.332 258.257 915.265 258.907 911.844 258.907Z" fill="black"/>
<path d="M952.07 258.77C948.741 258.77 945.868 258.029 943.45 256.547C941.033 255.041 939.163 252.921 937.841 250.184C936.541 247.425 935.891 244.176 935.891 240.436V240.402C935.891 236.685 936.541 233.435 937.841 230.653C939.163 227.871 941.01 225.716 943.382 224.188C945.753 222.66 948.524 221.896 951.694 221.896C954.864 221.896 957.6 222.638 959.903 224.12C962.229 225.579 964.019 227.643 965.274 230.311C966.551 232.979 967.189 236.092 967.189 239.649V241.428H938.148V237.836H965L962.708 241.086V239.375C962.708 236.457 962.229 234.005 961.272 232.021C960.337 230.014 959.037 228.498 957.372 227.472C955.73 226.446 953.826 225.933 951.66 225.933C949.493 225.933 947.566 226.457 945.879 227.506C944.191 228.555 942.857 230.094 941.877 232.124C940.919 234.131 940.44 236.548 940.44 239.375V241.086C940.44 243.982 940.919 246.445 941.877 248.474C942.857 250.504 944.226 252.054 945.982 253.126C947.737 254.198 949.801 254.734 952.173 254.734C953.906 254.734 955.457 254.471 956.825 253.947C958.193 253.4 959.333 252.636 960.245 251.655C961.158 250.675 961.807 249.534 962.195 248.235L962.298 247.927H966.744L966.676 248.269C966.357 249.774 965.775 251.176 964.932 252.476C964.111 253.753 963.062 254.87 961.785 255.828C960.508 256.763 959.048 257.493 957.406 258.017C955.764 258.519 953.986 258.77 952.07 258.77Z" fill="black"/>
<path d="M973.244 258.12V222.546H977.759V228.635H977.861C978.774 226.697 980.21 225.1 982.171 223.846C984.132 222.569 986.538 221.931 989.389 221.931C993.334 221.931 996.412 223.116 998.624 225.488C1000.84 227.86 1001.94 231.143 1001.94 235.339V258.12H997.427V236.092C997.427 232.785 996.629 230.265 995.033 228.532C993.436 226.799 991.122 225.933 988.089 225.933C986.014 225.933 984.201 226.4 982.65 227.335C981.1 228.27 979.891 229.57 979.024 231.234C978.181 232.876 977.759 234.815 977.759 237.049V258.12H973.244Z" fill="black"/>
<path d="M1020.17 258.77C1017.26 258.77 1015.07 258.052 1013.61 256.615C1012.17 255.155 1011.45 252.875 1011.45 249.774V226.343H1006.22V222.546H1011.45V212.935H1016.1V222.546H1023.12V226.343H1016.1V249.705C1016.1 251.667 1016.51 253.035 1017.33 253.81C1018.18 254.585 1019.43 254.973 1021.1 254.973C1021.49 254.973 1021.85 254.962 1022.19 254.939C1022.56 254.893 1022.86 254.859 1023.12 254.836V258.496C1022.77 258.565 1022.33 258.622 1021.78 258.667C1021.26 258.736 1020.72 258.77 1020.17 258.77Z" fill="black"/>
<path d="M1042.65 258.77C1039.32 258.77 1036.44 258.029 1034.03 256.547C1031.61 255.041 1029.74 252.921 1028.42 250.184C1027.12 247.425 1026.47 244.176 1026.47 240.436V240.402C1026.47 236.685 1027.12 233.435 1028.42 230.653C1029.74 227.871 1031.59 225.716 1033.96 224.188C1036.33 222.66 1039.1 221.896 1042.27 221.896C1045.44 221.896 1048.18 222.638 1050.48 224.12C1052.81 225.579 1054.6 227.643 1055.85 230.311C1057.13 232.979 1057.77 236.092 1057.77 239.649V241.428H1028.73V237.836H1055.58L1053.29 241.086V239.375C1053.29 236.457 1052.81 234.005 1051.85 232.021C1050.91 230.014 1049.61 228.498 1047.95 227.472C1046.31 226.446 1044.4 225.933 1042.24 225.933C1040.07 225.933 1038.14 226.457 1036.46 227.506C1034.77 228.555 1033.43 230.094 1032.45 232.124C1031.5 234.131 1031.02 236.548 1031.02 239.375V241.086C1031.02 243.982 1031.5 246.445 1032.45 248.474C1033.43 250.504 1034.8 252.054 1036.56 253.126C1038.31 254.198 1040.38 254.734 1042.75 254.734C1044.48 254.734 1046.03 254.471 1047.4 253.947C1048.77 253.4 1049.91 252.636 1050.82 251.655C1051.73 250.675 1052.38 249.534 1052.77 248.235L1052.87 247.927H1057.32L1057.25 248.269C1056.93 249.774 1056.35 251.176 1055.51 252.476C1054.69 253.753 1053.64 254.87 1052.36 255.828C1051.08 256.763 1049.63 257.493 1047.98 258.017C1046.34 258.519 1044.56 258.77 1042.65 258.77Z" fill="black"/>
<path d="M1063.82 258.12V222.546H1068.34V228.943H1068.44C1069.08 226.754 1070.15 225.032 1071.65 223.778C1073.18 222.524 1075.03 221.896 1077.2 221.896C1077.79 221.896 1078.34 221.942 1078.84 222.033C1079.34 222.124 1079.73 222.216 1080 222.307V226.719C1079.7 226.583 1079.26 226.469 1078.67 226.377C1078.07 226.263 1077.38 226.206 1076.58 226.206C1074.91 226.206 1073.46 226.617 1072.2 227.438C1070.97 228.236 1070.01 229.376 1069.33 230.858C1068.67 232.34 1068.34 234.085 1068.34 236.092V258.12H1063.82Z" fill="black"/>
<path d="M29.5371 268.791V235.93L172.794 252.545L29.5371 268.791Z" fill="#0C4B86"/>
<path d="M84.9198 303.497V276.913L172.794 263.622L84.9198 303.497Z" fill="#0C4B86"/>
<path d="M47.9983 43.5677C28.9164 39.5974 18.4152 38.0256 0 36.1833V213.777L172.794 241.469C125.001 209.222 97.7355 198.178 47.9983 191.624V43.5677Z" fill="#28B88A"/>
<path d="M172.794 54.6443C146.949 22.8915 84.551 1.84609 64.9824 0V176.486C100.058 182.763 136.611 195.316 172.794 223.008V54.6443Z" fill="#F99D22"/>
<path d="M212.635 116.673V66.7246H221.565V116.673H212.635Z" fill="#2E2E2E"/>
<path d="M243.822 117.4C240.615 117.4 237.869 116.927 235.584 115.981C233.323 115.034 231.546 113.708 230.253 112C228.984 110.269 228.211 108.273 227.934 106.012L227.9 105.7H236.38L236.449 106.012C236.772 107.604 237.534 108.839 238.734 109.715C239.957 110.592 241.665 111.031 243.857 111.031C245.264 111.031 246.464 110.858 247.457 110.512C248.449 110.165 249.21 109.658 249.741 108.989C250.295 108.319 250.572 107.535 250.572 106.635V106.6C250.572 105.516 250.203 104.639 249.464 103.969C248.726 103.277 247.399 102.712 245.484 102.273L239.392 100.923C237.061 100.393 235.111 99.6658 233.542 98.7427C231.973 97.8197 230.796 96.6774 230.011 95.3159C229.226 93.9314 228.834 92.3276 228.834 90.5046V90.4699C228.834 88.2316 229.446 86.2701 230.669 84.5855C231.892 82.901 233.611 81.5856 235.826 80.6395C238.042 79.6934 240.615 79.2203 243.545 79.2203C246.591 79.2203 249.199 79.728 251.368 80.7434C253.537 81.7587 255.21 83.1202 256.387 84.8278C257.587 86.5355 258.233 88.4508 258.325 90.5738L258.36 90.9545H250.33L250.295 90.6776C250.11 89.2008 249.441 87.9893 248.287 87.0431C247.134 86.0739 245.553 85.5893 243.545 85.5893C242.276 85.5893 241.168 85.7739 240.222 86.1432C239.299 86.5124 238.584 87.0316 238.076 87.7008C237.592 88.37 237.349 89.1546 237.349 90.0546V90.0892C237.349 90.7815 237.522 91.4045 237.869 91.9583C238.215 92.5122 238.768 92.9968 239.53 93.4121C240.291 93.8044 241.307 94.1506 242.576 94.4506L248.668 95.8005C252.476 96.6543 255.187 97.8774 256.802 99.4696C258.418 101.039 259.225 103.15 259.225 105.804V105.839C259.225 108.146 258.568 110.177 257.252 111.931C255.937 113.661 254.114 115.011 251.783 115.981C249.476 116.927 246.822 117.4 243.822 117.4Z" fill="#2E2E2E"/>
<path d="M280.963 117.4C277.363 117.4 274.236 116.638 271.583 115.115C268.929 113.569 266.864 111.377 265.387 108.539C263.933 105.677 263.206 102.273 263.206 98.3274V98.2581C263.206 94.3352 263.945 90.9545 265.421 88.1162C266.898 85.2547 268.964 83.0625 271.617 81.5395C274.271 79.9934 277.375 79.2203 280.929 79.2203C284.505 79.2203 287.621 79.9934 290.274 81.5395C292.951 83.0625 295.028 85.2432 296.505 88.0816C297.982 90.9199 298.72 94.3121 298.72 98.2581V98.3274C298.72 102.296 297.982 105.712 296.505 108.573C295.051 111.412 292.997 113.592 290.344 115.115C287.69 116.638 284.563 117.4 280.963 117.4ZM280.998 110.442C282.821 110.442 284.402 109.969 285.74 109.023C287.078 108.077 288.105 106.704 288.821 104.904C289.559 103.081 289.928 100.889 289.928 98.3274V98.2581C289.928 95.7198 289.559 93.5506 288.821 91.7507C288.082 89.9507 287.032 88.5777 285.671 87.6316C284.332 86.6855 282.752 86.2124 280.929 86.2124C279.152 86.2124 277.583 86.6855 276.221 87.6316C274.883 88.5777 273.833 89.9507 273.071 91.7507C272.333 93.5506 271.963 95.7198 271.963 98.2581V98.3274C271.963 100.889 272.333 103.081 273.071 104.904C273.833 106.704 274.883 108.077 276.221 109.023C277.583 109.969 279.175 110.442 280.998 110.442Z" fill="#2E2E2E"/>
<path d="M304.501 116.673V66.7246H313.12V116.673H304.501Z" fill="#2E2E2E"/>
<path d="M331.292 117.296C328.869 117.296 326.723 116.834 324.854 115.911C323.008 114.965 321.566 113.661 320.527 112C319.512 110.315 319.004 108.389 319.004 106.219V106.15C319.004 103.958 319.546 102.089 320.631 100.543C321.739 98.9735 323.331 97.7389 325.408 96.8389C327.485 95.9159 330 95.3621 332.954 95.1775L346.972 94.3121V100.023L334.165 100.82C332.042 100.958 330.415 101.466 329.285 102.343C328.154 103.219 327.588 104.385 327.588 105.839V105.873C327.588 107.373 328.154 108.562 329.285 109.439C330.438 110.292 331.961 110.719 333.854 110.719C335.515 110.719 336.992 110.385 338.284 109.715C339.6 109.046 340.638 108.135 341.4 106.981C342.161 105.827 342.542 104.523 342.542 103.069V92.0622C342.542 90.2161 341.953 88.7623 340.776 87.7008C339.623 86.6162 337.95 86.0739 335.757 86.0739C333.727 86.0739 332.1 86.5124 330.877 87.3893C329.654 88.2431 328.892 89.3507 328.592 90.7122L328.523 91.0238H320.562L320.596 90.6084C320.781 88.4392 321.508 86.5008 322.777 84.7932C324.046 83.0625 325.8 81.701 328.038 80.7087C330.3 79.7165 332.977 79.2203 336.069 79.2203C339.138 79.2203 341.792 79.728 344.03 80.7434C346.292 81.7587 348.034 83.1779 349.257 85.0009C350.503 86.8239 351.126 88.97 351.126 91.4391V116.673H342.542V111.031H342.334C341.642 112.3 340.742 113.408 339.634 114.354C338.527 115.3 337.257 116.027 335.827 116.534C334.419 117.042 332.908 117.296 331.292 117.296Z" fill="#2E2E2E"/>
<path d="M217.1 171.052V163.852H229.665C232.896 163.852 235.388 163.033 237.142 161.394C238.918 159.733 239.807 157.402 239.807 154.402V154.333C239.807 151.31 238.918 148.979 237.142 147.341C235.388 145.703 232.896 144.883 229.665 144.883H217.1V137.614H231.88C235.249 137.614 238.203 138.307 240.741 139.691C243.303 141.076 245.299 143.026 246.73 145.541C248.16 148.033 248.876 150.952 248.876 154.298V154.368C248.876 157.691 248.16 160.61 246.73 163.125C245.299 165.617 243.303 167.567 240.741 168.975C238.203 170.359 235.249 171.052 231.88 171.052H217.1ZM212.635 187.563V137.614H221.565V187.563H212.635Z" fill="#2E2E2E"/>
<path d="M267.048 188.29C264.348 188.29 262.052 187.747 260.16 186.663C258.291 185.555 256.86 183.974 255.868 181.921C254.876 179.867 254.379 177.432 254.379 174.617V150.872H262.964V172.886C262.964 175.494 263.575 177.513 264.798 178.944C266.021 180.351 267.867 181.055 270.337 181.055C271.56 181.055 272.667 180.848 273.66 180.432C274.675 179.994 275.54 179.382 276.256 178.598C276.971 177.813 277.513 176.878 277.882 175.794C278.252 174.686 278.436 173.463 278.436 172.125V150.872H287.055V187.563H278.436V181.817H278.263C277.617 183.109 276.775 184.251 275.736 185.244C274.698 186.213 273.452 186.963 271.998 187.493C270.544 188.024 268.894 188.29 267.048 188.29Z" fill="#2E2E2E"/>
<path d="M314.608 188.29C312.854 188.29 311.239 188.013 309.762 187.459C308.308 186.882 307.028 186.086 305.92 185.07C304.812 184.032 303.901 182.786 303.185 181.332H303.012V187.563H294.393V137.614H303.012V157.171H303.185C303.901 155.695 304.824 154.437 305.955 153.399C307.085 152.337 308.389 151.529 309.866 150.976C311.343 150.399 312.947 150.11 314.677 150.11C317.746 150.11 320.412 150.883 322.673 152.429C324.935 153.952 326.688 156.145 327.935 159.006C329.181 161.844 329.804 165.237 329.804 169.183V169.217C329.804 173.14 329.181 176.532 327.935 179.394C326.712 182.255 324.958 184.459 322.673 186.005C320.412 187.528 317.723 188.29 314.608 188.29ZM312.047 181.055C313.893 181.055 315.485 180.582 316.823 179.636C318.185 178.667 319.223 177.294 319.939 175.517C320.654 173.74 321.012 171.64 321.012 169.217V169.183C321.012 166.737 320.643 164.637 319.904 162.883C319.189 161.129 318.162 159.779 316.823 158.833C315.485 157.864 313.893 157.379 312.047 157.379C310.27 157.379 308.701 157.864 307.339 158.833C306.001 159.802 304.939 161.175 304.155 162.952C303.37 164.706 302.978 166.783 302.978 169.183V169.217C302.978 171.617 303.359 173.706 304.12 175.482C304.905 177.259 305.978 178.632 307.339 179.601C308.701 180.571 310.27 181.055 312.047 181.055Z" fill="#2E2E2E"/>
<path d="M335.584 187.563V137.614H344.203V187.563H335.584Z" fill="#2E2E2E"/>
<path d="M351.784 187.563V150.872H360.403V187.563H351.784ZM356.076 145.61C354.738 145.61 353.607 145.149 352.684 144.226C351.761 143.303 351.299 142.195 351.299 140.903C351.299 139.587 351.761 138.48 352.684 137.58C353.607 136.657 354.738 136.195 356.076 136.195C357.437 136.195 358.58 136.657 359.503 137.58C360.426 138.48 360.887 139.587 360.887 140.903C360.887 142.195 360.426 143.303 359.503 144.226C358.58 145.149 357.437 145.61 356.076 145.61Z" fill="#2E2E2E"/>
<path d="M383.94 188.29C380.317 188.29 377.179 187.517 374.525 185.97C371.872 184.424 369.818 182.221 368.364 179.359C366.933 176.498 366.218 173.106 366.218 169.183V169.148C366.218 165.248 366.945 161.879 368.399 159.041C369.852 156.179 371.895 153.975 374.525 152.429C377.179 150.883 380.283 150.11 383.837 150.11C387.067 150.11 389.859 150.733 392.213 151.979C394.567 153.202 396.413 154.829 397.751 156.86C399.09 158.891 399.851 161.129 400.036 163.575V163.817H391.936L391.867 163.54C391.521 161.764 390.679 160.252 389.34 159.006C388.025 157.737 386.225 157.102 383.94 157.102C382.14 157.102 380.56 157.598 379.198 158.591C377.86 159.56 376.821 160.944 376.083 162.744C375.344 164.544 374.975 166.702 374.975 169.217V169.252C374.975 171.79 375.344 173.959 376.083 175.759C376.844 177.559 377.894 178.944 379.233 179.913C380.594 180.859 382.175 181.332 383.975 181.332C386.167 181.332 387.933 180.744 389.271 179.567C390.632 178.367 391.509 176.809 391.902 174.894L391.971 174.582H400.105L400.071 174.825C399.84 177.363 399.032 179.648 397.648 181.678C396.263 183.709 394.405 185.324 392.075 186.524C389.744 187.701 387.033 188.29 383.94 188.29Z" fill="#2E2E2E"/>
<path d="M212.635 258.453V208.504H221.565V250.941H244.203V258.453H212.635Z" fill="#2E2E2E"/>
<path d="M250.018 258.453V221.762H258.637V258.453H250.018ZM254.31 216.5C252.972 216.5 251.841 216.039 250.918 215.116C249.995 214.193 249.533 213.085 249.533 211.793C249.533 210.477 249.995 209.37 250.918 208.47C251.841 207.547 252.972 207.085 254.31 207.085C255.672 207.085 256.814 207.547 257.737 208.47C258.66 209.37 259.122 210.477 259.122 211.793C259.122 213.085 258.66 214.193 257.737 215.116C256.814 216.039 255.672 216.5 254.31 216.5Z" fill="#2E2E2E"/>
<path d="M286.432 259.179C284.678 259.179 283.063 258.903 281.586 258.349C280.132 257.772 278.852 256.976 277.744 255.96C276.636 254.922 275.725 253.676 275.01 252.222H274.836V258.453H266.218V208.504H274.836V228.061H275.01C275.725 226.584 276.648 225.327 277.779 224.288C278.909 223.227 280.213 222.419 281.69 221.865C283.167 221.288 284.771 221 286.501 221C289.571 221 292.236 221.773 294.497 223.319C296.759 224.842 298.513 227.034 299.759 229.896C301.005 232.734 301.628 236.126 301.628 240.072V240.107C301.628 244.03 301.005 247.422 299.759 250.284C298.536 253.145 296.782 255.349 294.497 256.895C292.236 258.418 289.547 259.179 286.432 259.179ZM283.871 251.945C285.717 251.945 287.309 251.472 288.648 250.526C290.009 249.557 291.047 248.184 291.763 246.407C292.478 244.63 292.836 242.53 292.836 240.107V240.072C292.836 237.626 292.467 235.526 291.728 233.773C291.013 232.019 289.986 230.669 288.648 229.723C287.309 228.754 285.717 228.269 283.871 228.269C282.094 228.269 280.525 228.754 279.163 229.723C277.825 230.692 276.763 232.065 275.979 233.842C275.194 235.596 274.802 237.673 274.802 240.072V240.107C274.802 242.507 275.183 244.595 275.944 246.372C276.729 248.149 277.802 249.522 279.163 250.491C280.525 251.46 282.094 251.945 283.871 251.945Z" fill="#2E2E2E"/>
<path d="M307.166 258.453V221.762H315.75V228.096H315.958C316.512 225.881 317.516 224.15 318.97 222.904C320.446 221.635 322.246 221 324.369 221C324.9 221 325.408 221.035 325.892 221.104C326.377 221.173 326.781 221.254 327.104 221.346V229.134C326.758 228.996 326.262 228.881 325.615 228.788C324.992 228.696 324.312 228.65 323.573 228.65C321.958 228.65 320.562 228.984 319.385 229.654C318.208 230.3 317.308 231.257 316.685 232.527C316.062 233.796 315.75 235.342 315.75 237.165V258.453H307.166Z" fill="#2E2E2E"/>
<path d="M341.538 259.076C339.115 259.076 336.969 258.614 335.1 257.691C333.254 256.745 331.811 255.441 330.773 253.78C329.758 252.095 329.25 250.168 329.25 247.999V247.93C329.25 245.738 329.792 243.868 330.877 242.322C331.984 240.753 333.577 239.519 335.654 238.619C337.73 237.696 340.246 237.142 343.199 236.957L357.218 236.092V241.803L344.411 242.599C342.288 242.738 340.661 243.245 339.53 244.122C338.4 244.999 337.834 246.165 337.834 247.618V247.653C337.834 249.153 338.4 250.341 339.53 251.218C340.684 252.072 342.207 252.499 344.099 252.499C345.761 252.499 347.238 252.164 348.53 251.495C349.845 250.826 350.884 249.914 351.645 248.761C352.407 247.607 352.788 246.303 352.788 244.849V233.842C352.788 231.996 352.199 230.542 351.022 229.48C349.868 228.396 348.195 227.854 346.003 227.854C343.973 227.854 342.346 228.292 341.123 229.169C339.9 230.023 339.138 231.13 338.838 232.492L338.769 232.803H330.808L330.842 232.388C331.027 230.219 331.754 228.281 333.023 226.573C334.292 224.842 336.046 223.481 338.284 222.488C340.546 221.496 343.223 221 346.315 221C349.384 221 352.038 221.508 354.276 222.523C356.537 223.538 358.28 224.958 359.503 226.781C360.749 228.604 361.372 230.75 361.372 233.219V258.453H352.788V252.81H352.58C351.888 254.08 350.988 255.187 349.88 256.133C348.772 257.08 347.503 257.806 346.072 258.314C344.665 258.822 343.153 259.076 341.538 259.076Z" fill="#2E2E2E"/>
<path d="M368.364 258.453V221.762H376.948V228.096H377.156C377.71 225.881 378.714 224.15 380.167 222.904C381.644 221.635 383.444 221 385.567 221C386.098 221 386.606 221.035 387.09 221.104C387.575 221.173 387.979 221.254 388.302 221.346V229.134C387.956 228.996 387.459 228.881 386.813 228.788C386.19 228.696 385.51 228.65 384.771 228.65C383.156 228.65 381.76 228.984 380.583 229.654C379.406 230.3 378.506 231.257 377.883 232.527C377.26 233.796 376.948 235.342 376.948 237.165V258.453H368.364Z" fill="#2E2E2E"/>
<path d="M398.824 270.637C397.994 270.637 397.175 270.591 396.367 270.498C395.582 270.429 394.925 270.348 394.394 270.256V263.714C394.717 263.76 395.121 263.818 395.605 263.887C396.09 263.956 396.644 263.991 397.267 263.991C398.928 263.991 400.244 263.702 401.213 263.125C402.182 262.572 402.944 261.522 403.497 259.976L404.017 258.487L390.829 221.762H400.209L409.347 252.914L408.032 251.114H409.866L408.551 252.914L417.689 221.762H426.758L413.535 259.699C412.612 262.375 411.493 264.51 410.178 266.102C408.863 267.718 407.27 268.871 405.401 269.564C403.555 270.279 401.363 270.637 398.824 270.637Z" fill="#2E2E2E"/>
<path fill-rule="evenodd" clip-rule="evenodd" d="M458.901 262.335C458.901 262.335 456.429 262.335 456.429 200.522C456.429 138.709 458.901 138.709 458.901 138.709C458.901 138.709 461.374 138.709 461.374 200.522C461.374 262.335 458.901 262.335 458.901 262.335Z" fill="black"/>
</svg>
